<?xml version="1.0" encoding="UTF-8"?>
<svg xmlns="http://www.w3.org/2000/svg" xmlns:xlink="http://www.w3.org/1999/xlink" width="1920" height="1080" viewBox="0 0 1920 1080">
<defs>
<g>
<g id="glyph-0-0">
<path d="M 3.160156 -2.84375 C 3.160156 -2.5 3.039062 -2.203125 2.792969 -1.957031 C 2.546875 -1.714844 2.253906 -1.589844 1.910156 -1.589844 C 1.5625 -1.589844 1.269531 -1.714844 1.023438 -1.957031 C 0.777344 -2.203125 0.65625 -2.5 0.65625 -2.84375 C 0.65625 -3.1875 0.777344 -3.484375 1.023438 -3.730469 C 1.269531 -3.972656 1.5625 -4.097656 1.910156 -4.097656 C 2.253906 -4.097656 2.546875 -3.972656 2.792969 -3.730469 C 3.039062 -3.484375 3.160156 -3.1875 3.160156 -2.84375 Z "/>
</g>
<g id="glyph-0-1">
</g>
<g id="glyph-0-2">
<path d="M 5.945312 -4.910156 L 5.617188 -4.910156 C 5.585938 -5.023438 5.535156 -5.15625 5.460938 -5.316406 C 5.386719 -5.472656 5.304688 -5.621094 5.210938 -5.757812 C 5.117188 -5.902344 5.011719 -6.03125 4.898438 -6.140625 C 4.789062 -6.25 4.679688 -6.3125 4.574219 -6.328125 C 4.476562 -6.339844 4.351562 -6.351562 4.203125 -6.355469 C 4.054688 -6.363281 3.914062 -6.367188 3.789062 -6.367188 L 3.511719 -6.367188 L 3.511719 -0.976562 C 3.511719 -0.875 3.535156 -0.777344 3.578125 -0.691406 C 3.625 -0.605469 3.703125 -0.535156 3.8125 -0.488281 C 3.867188 -0.46875 3.988281 -0.4375 4.171875 -0.398438 C 4.351562 -0.359375 4.496094 -0.339844 4.59375 -0.335938 L 4.59375 0 L 1.414062 0 L 1.414062 -0.335938 C 1.503906 -0.34375 1.636719 -0.355469 1.820312 -0.375 C 2.003906 -0.394531 2.128906 -0.417969 2.199219 -0.445312 C 2.300781 -0.488281 2.378906 -0.546875 2.429688 -0.625 C 2.476562 -0.703125 2.5 -0.804688 2.5 -0.933594 L 2.5 -6.367188 L 2.226562 -6.367188 C 2.128906 -6.367188 2.007812 -6.363281 1.859375 -6.359375 C 1.714844 -6.355469 1.574219 -6.34375 1.441406 -6.328125 C 1.339844 -6.316406 1.230469 -6.253906 1.117188 -6.140625 C 1.003906 -6.027344 0.902344 -5.902344 0.808594 -5.757812 C 0.710938 -5.617188 0.628906 -5.464844 0.554688 -5.304688 C 0.484375 -5.144531 0.433594 -5.011719 0.402344 -4.910156 L 0.0703125 -4.910156 L 0.0703125 -6.738281 L 5.945312 -6.738281 Z "/>
</g>
<g id="glyph-0-3">
<path d="M 4.5 -1.101562 C 4.304688 -0.726562 4.042969 -0.429688 3.710938 -0.207031 C 3.382812 0.0117188 3.003906 0.125 2.578125 0.125 C 2.203125 0.125 1.871094 0.0585938 1.589844 -0.0742188 C 1.304688 -0.207031 1.070312 -0.390625 0.886719 -0.617188 C 0.703125 -0.84375 0.566406 -1.109375 0.476562 -1.414062 C 0.386719 -1.71875 0.34375 -2.039062 0.34375 -2.378906 C 0.34375 -2.683594 0.390625 -2.980469 0.488281 -3.273438 C 0.582031 -3.566406 0.726562 -3.828125 0.910156 -4.0625 C 1.09375 -4.289062 1.316406 -4.46875 1.582031 -4.605469 C 1.851562 -4.746094 2.152344 -4.8125 2.484375 -4.8125 C 2.824219 -4.8125 3.117188 -4.761719 3.359375 -4.652344 C 3.605469 -4.542969 3.800781 -4.398438 3.953125 -4.210938 C 4.101562 -4.035156 4.207031 -3.824219 4.28125 -3.585938 C 4.351562 -3.34375 4.386719 -3.082031 4.386719 -2.800781 L 4.386719 -2.488281 L 1.285156 -2.488281 C 1.285156 -2.179688 1.316406 -1.902344 1.375 -1.648438 C 1.433594 -1.398438 1.527344 -1.179688 1.652344 -0.988281 C 1.777344 -0.804688 1.9375 -0.660156 2.136719 -0.554688 C 2.335938 -0.445312 2.574219 -0.394531 2.847656 -0.394531 C 3.128906 -0.394531 3.371094 -0.460938 3.578125 -0.59375 C 3.78125 -0.722656 3.976562 -0.960938 4.167969 -1.304688 L 4.5 -1.101562 M 3.453125 -2.886719 C 3.453125 -3.0625 3.4375 -3.253906 3.40625 -3.453125 C 3.375 -3.65625 3.328125 -3.824219 3.261719 -3.960938 C 3.1875 -4.105469 3.089844 -4.222656 2.960938 -4.316406 C 2.835938 -4.40625 2.671875 -4.453125 2.472656 -4.453125 C 2.140625 -4.453125 1.863281 -4.316406 1.644531 -4.039062 C 1.425781 -3.761719 1.304688 -3.378906 1.285156 -2.886719 Z "/>
</g>
<g id="glyph-0-4">
<path d="M 3.433594 -2.292969 C 3.5625 -2.179688 3.660156 -2.046875 3.730469 -1.898438 C 3.800781 -1.75 3.835938 -1.566406 3.835938 -1.351562 C 3.835938 -0.917969 3.671875 -0.566406 3.347656 -0.289062 C 3.023438 -0.015625 2.605469 0.125 2.089844 0.125 C 1.816406 0.125 1.566406 0.0742188 1.335938 -0.0234375 C 1.105469 -0.121094 0.941406 -0.210938 0.84375 -0.292969 L 0.75 0.015625 L 0.394531 0.015625 L 0.347656 -1.613281 L 0.675781 -1.613281 C 0.699219 -1.492188 0.753906 -1.347656 0.835938 -1.179688 C 0.917969 -1.015625 1.015625 -0.867188 1.132812 -0.734375 C 1.257812 -0.59375 1.40625 -0.476562 1.578125 -0.378906 C 1.75 -0.285156 1.945312 -0.238281 2.160156 -0.238281 C 2.464844 -0.238281 2.699219 -0.304688 2.863281 -0.445312 C 3.027344 -0.582031 3.109375 -0.78125 3.109375 -1.039062 C 3.109375 -1.171875 3.082031 -1.289062 3.03125 -1.382812 C 2.980469 -1.480469 2.902344 -1.566406 2.800781 -1.636719 C 2.695312 -1.710938 2.566406 -1.777344 2.417969 -1.835938 C 2.265625 -1.894531 2.09375 -1.953125 1.910156 -2.007812 C 1.757812 -2.050781 1.59375 -2.113281 1.414062 -2.191406 C 1.230469 -2.269531 1.074219 -2.359375 0.945312 -2.464844 C 0.804688 -2.574219 0.691406 -2.710938 0.601562 -2.871094 C 0.515625 -3.035156 0.46875 -3.222656 0.46875 -3.441406 C 0.46875 -3.824219 0.613281 -4.148438 0.898438 -4.414062 C 1.183594 -4.679688 1.5625 -4.8125 2.042969 -4.8125 C 2.226562 -4.8125 2.414062 -4.789062 2.605469 -4.742188 C 2.796875 -4.695312 2.953125 -4.636719 3.070312 -4.570312 L 3.179688 -4.820312 L 3.523438 -4.820312 L 3.59375 -3.3125 L 3.265625 -3.3125 C 3.199219 -3.652344 3.054688 -3.925781 2.835938 -4.136719 C 2.617188 -4.347656 2.347656 -4.453125 2.03125 -4.453125 C 1.773438 -4.453125 1.566406 -4.386719 1.417969 -4.257812 C 1.269531 -4.125 1.195312 -3.96875 1.195312 -3.785156 C 1.195312 -3.640625 1.222656 -3.523438 1.269531 -3.425781 C 1.320312 -3.332031 1.390625 -3.253906 1.492188 -3.183594 C 1.585938 -3.121094 1.707031 -3.0625 1.847656 -3.007812 C 1.992188 -2.953125 2.171875 -2.890625 2.382812 -2.820312 C 2.59375 -2.753906 2.789062 -2.675781 2.972656 -2.585938 C 3.160156 -2.5 3.3125 -2.402344 3.433594 -2.292969 Z "/>
</g>
<g id="glyph-0-5">
<path d="M 3.234375 -0.203125 C 3.027344 -0.117188 2.832031 -0.046875 2.648438 0.0117188 C 2.464844 0.0703125 2.242188 0.101562 1.976562 0.101562 C 1.582031 0.101562 1.304688 0 1.148438 -0.195312 C 0.988281 -0.394531 0.90625 -0.675781 0.90625 -1.035156 L 0.90625 -4.207031 L 0.0625 -4.207031 L 0.0625 -4.660156 L 0.925781 -4.660156 L 0.925781 -6.121094 L 1.789062 -6.121094 L 1.789062 -4.660156 L 3.132812 -4.660156 L 3.132812 -4.207031 L 1.800781 -4.207031 L 1.800781 -1.589844 C 1.800781 -1.394531 1.804688 -1.230469 1.820312 -1.097656 C 1.835938 -0.96875 1.867188 -0.851562 1.921875 -0.753906 C 1.972656 -0.664062 2.050781 -0.59375 2.152344 -0.546875 C 2.25 -0.5 2.386719 -0.476562 2.558594 -0.476562 C 2.636719 -0.476562 2.753906 -0.480469 2.90625 -0.496094 C 3.0625 -0.511719 3.167969 -0.527344 3.234375 -0.550781 Z "/>
</g>
<g id="glyph-0-6">
<path d="M 2.609375 0 L 0.351562 0 L 0.351562 -0.3125 C 0.425781 -0.320312 0.5 -0.324219 0.578125 -0.332031 C 0.65625 -0.339844 0.722656 -0.351562 0.777344 -0.371094 C 0.867188 -0.398438 0.933594 -0.449219 0.976562 -0.519531 C 1.019531 -0.589844 1.039062 -0.683594 1.039062 -0.796875 L 1.039062 -3.683594 C 1.039062 -3.785156 1.015625 -3.878906 0.972656 -3.960938 C 0.925781 -4.046875 0.859375 -4.117188 0.777344 -4.171875 C 0.71875 -4.210938 0.632812 -4.242188 0.515625 -4.269531 C 0.402344 -4.296875 0.300781 -4.3125 0.203125 -4.320312 L 0.203125 -4.632812 L 1.855469 -4.738281 L 1.921875 -4.671875 L 1.921875 -0.855469 C 1.921875 -0.742188 1.945312 -0.652344 1.988281 -0.578125 C 2.027344 -0.507812 2.09375 -0.453125 2.1875 -0.417969 C 2.257812 -0.390625 2.324219 -0.367188 2.390625 -0.347656 C 2.457031 -0.332031 2.53125 -0.320312 2.609375 -0.3125 L 2.609375 0 M 2.019531 -6.585938 C 2.019531 -6.402344 1.957031 -6.246094 1.839844 -6.113281 C 1.722656 -5.976562 1.574219 -5.910156 1.402344 -5.910156 C 1.238281 -5.910156 1.097656 -5.972656 0.980469 -6.101562 C 0.863281 -6.230469 0.800781 -6.378906 0.800781 -6.542969 C 0.800781 -6.714844 0.863281 -6.867188 0.980469 -6.996094 C 1.097656 -7.128906 1.238281 -7.191406 1.402344 -7.191406 C 1.582031 -7.191406 1.730469 -7.132812 1.84375 -7.007812 C 1.960938 -6.886719 2.019531 -6.746094 2.019531 -6.585938 Z "/>
</g>
<g id="glyph-0-7">
<path d="M 5.511719 0 L 3.222656 0 L 3.222656 -0.3125 C 3.296875 -0.320312 3.375 -0.324219 3.464844 -0.332031 C 3.550781 -0.339844 3.621094 -0.351562 3.679688 -0.371094 C 3.769531 -0.398438 3.832031 -0.449219 3.875 -0.519531 C 3.917969 -0.589844 3.941406 -0.683594 3.941406 -0.796875 L 3.941406 -3.203125 C 3.941406 -3.535156 3.863281 -3.792969 3.703125 -3.972656 C 3.546875 -4.152344 3.355469 -4.246094 3.132812 -4.246094 C 2.964844 -4.246094 2.808594 -4.21875 2.667969 -4.164062 C 2.53125 -4.113281 2.40625 -4.050781 2.296875 -3.972656 C 2.195312 -3.902344 2.109375 -3.824219 2.046875 -3.738281 C 1.988281 -3.65625 1.941406 -3.585938 1.914062 -3.535156 L 1.914062 -0.84375 C 1.914062 -0.738281 1.933594 -0.648438 1.980469 -0.578125 C 2.023438 -0.507812 2.089844 -0.457031 2.179688 -0.417969 C 2.246094 -0.386719 2.316406 -0.363281 2.394531 -0.347656 C 2.472656 -0.332031 2.550781 -0.320312 2.636719 -0.3125 L 2.636719 0 L 0.34375 0 L 0.34375 -0.3125 C 0.414062 -0.320312 0.488281 -0.324219 0.566406 -0.332031 C 0.644531 -0.339844 0.710938 -0.351562 0.769531 -0.371094 C 0.859375 -0.398438 0.921875 -0.449219 0.964844 -0.519531 C 1.007812 -0.589844 1.03125 -0.683594 1.03125 -0.796875 L 1.03125 -3.683594 C 1.03125 -3.792969 1.007812 -3.890625 0.960938 -3.980469 C 0.914062 -4.070312 0.851562 -4.144531 0.769531 -4.203125 C 0.707031 -4.238281 0.636719 -4.265625 0.554688 -4.285156 C 0.472656 -4.300781 0.382812 -4.3125 0.289062 -4.320312 L 0.289062 -4.632812 L 1.847656 -4.738281 L 1.914062 -4.671875 L 1.914062 -4.011719 L 1.9375 -4.011719 C 2.011719 -4.085938 2.109375 -4.179688 2.222656 -4.285156 C 2.335938 -4.390625 2.441406 -4.476562 2.542969 -4.542969 C 2.660156 -4.621094 2.800781 -4.683594 2.960938 -4.734375 C 3.125 -4.785156 3.304688 -4.808594 3.507812 -4.808594 C 3.957031 -4.808594 4.289062 -4.667969 4.507812 -4.390625 C 4.722656 -4.109375 4.832031 -3.734375 4.832031 -3.269531 L 4.832031 -0.835938 C 4.832031 -0.726562 4.851562 -0.636719 4.890625 -0.566406 C 4.929688 -0.5 4.992188 -0.445312 5.085938 -0.410156 C 5.160156 -0.375 5.226562 -0.355469 5.28125 -0.34375 C 5.335938 -0.328125 5.414062 -0.320312 5.511719 -0.3125 Z "/>
</g>
<g id="glyph-0-8">
<path d="M 4.351562 -0.484375 C 4.480469 -0.363281 4.578125 -0.226562 4.652344 -0.0742188 C 4.726562 0.0742188 4.761719 0.265625 4.761719 0.488281 C 4.761719 0.714844 4.710938 0.925781 4.613281 1.121094 C 4.515625 1.320312 4.367188 1.492188 4.167969 1.636719 C 3.957031 1.785156 3.703125 1.902344 3.410156 1.984375 C 3.113281 2.066406 2.75 2.109375 2.316406 2.109375 C 1.609375 2.109375 1.078125 2.003906 0.726562 1.796875 C 0.375 1.589844 0.199219 1.285156 0.199219 0.886719 C 0.199219 0.566406 0.324219 0.308594 0.578125 0.125 C 0.832031 -0.0625 1.15625 -0.164062 1.546875 -0.179688 L 1.546875 -0.246094 C 1.453125 -0.273438 1.355469 -0.3125 1.253906 -0.355469 C 1.152344 -0.394531 1.066406 -0.445312 0.992188 -0.503906 C 0.910156 -0.570312 0.84375 -0.648438 0.792969 -0.738281 C 0.742188 -0.828125 0.71875 -0.941406 0.71875 -1.074219 C 0.71875 -1.242188 0.777344 -1.394531 0.894531 -1.535156 C 1.011719 -1.675781 1.191406 -1.796875 1.433594 -1.898438 L 1.433594 -1.96875 C 1.128906 -2.113281 0.894531 -2.296875 0.726562 -2.519531 C 0.558594 -2.742188 0.476562 -3 0.476562 -3.292969 C 0.476562 -3.738281 0.640625 -4.101562 0.972656 -4.386719 C 1.300781 -4.671875 1.726562 -4.8125 2.242188 -4.8125 C 2.382812 -4.8125 2.523438 -4.800781 2.664062 -4.769531 C 2.804688 -4.742188 2.949219 -4.707031 3.09375 -4.660156 L 4.726562 -4.660156 L 4.726562 -4.207031 L 3.628906 -4.207031 L 3.628906 -4.175781 C 3.742188 -4.042969 3.832031 -3.890625 3.886719 -3.726562 C 3.945312 -3.5625 3.972656 -3.402344 3.972656 -3.242188 C 3.972656 -2.832031 3.804688 -2.484375 3.472656 -2.199219 C 3.140625 -1.914062 2.75 -1.769531 2.308594 -1.769531 L 1.734375 -1.769531 C 1.660156 -1.746094 1.585938 -1.699219 1.503906 -1.632812 C 1.425781 -1.566406 1.386719 -1.476562 1.386719 -1.363281 C 1.386719 -1.246094 1.417969 -1.15625 1.484375 -1.09375 C 1.550781 -1.03125 1.632812 -0.992188 1.726562 -0.96875 C 1.820312 -0.941406 1.925781 -0.925781 2.046875 -0.921875 C 2.171875 -0.914062 2.296875 -0.910156 2.425781 -0.90625 C 2.566406 -0.902344 2.757812 -0.894531 2.996094 -0.878906 C 3.238281 -0.863281 3.410156 -0.851562 3.511719 -0.851562 C 3.660156 -0.84375 3.804688 -0.808594 3.953125 -0.746094 C 4.097656 -0.683594 4.234375 -0.59375 4.351562 -0.484375 M 3.070312 -3.261719 C 3.070312 -3.632812 2.996094 -3.925781 2.847656 -4.148438 C 2.695312 -4.367188 2.484375 -4.476562 2.210938 -4.476562 C 2.0625 -4.476562 1.9375 -4.445312 1.832031 -4.382812 C 1.722656 -4.324219 1.636719 -4.234375 1.570312 -4.121094 C 1.507812 -4.015625 1.464844 -3.890625 1.4375 -3.742188 C 1.410156 -3.597656 1.394531 -3.445312 1.394531 -3.289062 C 1.394531 -2.9375 1.472656 -2.652344 1.625 -2.429688 C 1.78125 -2.210938 1.976562 -2.097656 2.222656 -2.097656 C 2.492188 -2.097656 2.703125 -2.207031 2.851562 -2.429688 C 2.996094 -2.648438 3.070312 -2.925781 3.070312 -3.261719 M 3.984375 0.664062 C 3.984375 0.488281 3.941406 0.34375 3.859375 0.226562 C 3.777344 0.113281 3.652344 0.0351562 3.484375 -0.00390625 C 3.394531 -0.015625 3.214844 -0.03125 2.9375 -0.046875 C 2.664062 -0.0625 2.34375 -0.0703125 1.980469 -0.0703125 C 1.636719 -0.00390625 1.394531 0.105469 1.25 0.261719 C 1.105469 0.421875 1.035156 0.621094 1.035156 0.867188 C 1.035156 0.980469 1.058594 1.085938 1.105469 1.1875 C 1.152344 1.289062 1.234375 1.382812 1.351562 1.46875 C 1.464844 1.550781 1.613281 1.617188 1.800781 1.667969 C 1.984375 1.722656 2.214844 1.746094 2.484375 1.746094 C 2.949219 1.746094 3.316406 1.65625 3.582031 1.480469 C 3.847656 1.300781 3.984375 1.027344 3.984375 0.664062 Z "/>
</g>
</g>
</defs>
<g fill="rgb(73.333333%, 73.333333%, 73.333333%)" fill-opacity="1">
<use xlink:href="#glyph-0-0" x="30" y="28.916016"/>
<use xlink:href="#glyph-0-1" x="34" y="28.916016"/>
<use xlink:href="#glyph-0-2" x="36" y="28.916016"/>
<use xlink:href="#glyph-0-3" x="42" y="28.916016"/>
<use xlink:href="#glyph-0-4" x="47" y="28.916016"/>
<use xlink:href="#glyph-0-5" x="51" y="28.916016"/>
<use xlink:href="#glyph-0-6" x="54" y="28.916016"/>
<use xlink:href="#glyph-0-7" x="57" y="28.916016"/>
<use xlink:href="#glyph-0-8" x="63" y="28.916016"/>
</g>
</svg>
